<svg preserveAspectRatio="none" overflow="visible" style="display: block;" width="16.1285" height="29.9529" viewBox="0 0 16.1285 29.9529" fill="none" xmlns="http://www.w3.org/2000/svg">
<g id="Ellipsis">
<path id="Vector" d="M8.06423 15.7044C8.43538 15.7044 8.73625 15.3785 8.73625 14.9764C8.73625 14.5744 8.43538 14.2484 8.06423 14.2484C7.69309 14.2484 7.39221 14.5744 7.39221 14.9764C7.39221 15.3785 7.69309 15.7044 8.06423 15.7044Z" stroke="#8F9498" stroke-width="1.20964" stroke-linecap="round" stroke-linejoin="round"/>
<path id="Vector_2" d="M12.7684 15.7044C13.1396 15.7044 13.4404 15.3785 13.4404 14.9764C13.4404 14.5744 13.1396 14.2484 12.7684 14.2484C12.3973 14.2484 12.0964 14.5744 12.0964 14.9764C12.0964 15.3785 12.3973 15.7044 12.7684 15.7044Z" stroke="#8F9498" stroke-width="1.20964" stroke-linecap="round" stroke-linejoin="round"/>
<path id="Vector_3" d="M3.36019 15.7044C3.73133 15.7044 4.03221 15.3785 4.03221 14.9764C4.03221 14.5744 3.73133 14.2484 3.36019 14.2484C2.98904 14.2484 2.68817 14.5744 2.68817 14.9764C2.68817 15.3785 2.98904 15.7044 3.36019 15.7044Z" stroke="#8F9498" stroke-width="1.20964" stroke-linecap="round" stroke-linejoin="round"/>
</g>
</svg>
